<?xml version="1.0" standalone="no"?>
<!DOCTYPE svg PUBLIC "-//W3C//DTD SVG 20010904//EN"
 "http://www.w3.org/TR/2001/REC-SVG-20010904/DTD/svg10.dtd">
<svg version="1.0" xmlns="http://www.w3.org/2000/svg"
 width="512.000000pt" height="512.000000pt" viewBox="0 0 512.000000 512.000000"
 preserveAspectRatio="xMidYMid meet">
<metadata>
Created by potrace 1.14, written by Peter Selinger 2001-2017
</metadata>
<g transform="translate(0.000000,512.000000) scale(0.100000,-0.100000)"
fill="#000000" stroke="none">
<path d="M238 3695 c-2 -2 -19 -6 -38 -9 -19 -3 -36 -10 -38 -15 -2 -6 -9 -11
-16 -11 -20 0 -92 -74 -117 -121 l-24 -44 0 -1215 0 -1215 23 -47 c43 -86 109
-138 202 -157 26 -5 1009 -8 2365 -7 l2320 2 44 24 c64 37 118 95 140 153 19
51 20 81 20 1239 1 1061 -1 1192 -15 1234 -9 26 -21 53 -27 61 -31 40 -86 87
-122 107 l-40 21 -2337 1 c-1286 1 -2339 0 -2340 -1z"/>
</g>
</svg>
